<?xml version="1.0" encoding="UTF-8" standalone="no"?>
<svg
   xmlns:dc="http://purl.org/dc/elements/1.1/"
   xmlns:cc="http://creativecommons.org/ns#"
   xmlns:rdf="http://www.w3.org/1999/02/22-rdf-syntax-ns#"
   xmlns:svg="http://www.w3.org/2000/svg"
   xmlns="http://www.w3.org/2000/svg"
   xmlns:sodipodi="http://sodipodi.sourceforge.net/DTD/sodipodi-0.dtd"
   xmlns:inkscape="http://www.inkscape.org/namespaces/inkscape"
   height="88"
   width="74"
   id="svg3043"
   version="1.1"
   inkscape:version="0.48.1 r9760"
   sodipodi:docname="Android_robot.svg">
  <metadata
     id="metadata3057">
    <rdf:RDF>
      <cc:Work
         rdf:about="">
        <dc:format>image/svg+xml</dc:format>
        <dc:type
           rdf:resource="http://purl.org/dc/dcmitype/StillImage" />
      </cc:Work>
    </rdf:RDF>
  </metadata>
  <defs
     id="defs3055" />
  <sodipodi:namedview
     pagecolor="#ffffff"
     bordercolor="#666666"
     borderopacity="1"
     objecttolerance="10"
     gridtolerance="10"
     guidetolerance="10"
     inkscape:pageopacity="0"
     inkscape:pageshadow="2"
     inkscape:window-width="1920"
     inkscape:window-height="1027"
     id="namedview3053"
     showgrid="false"
     inkscape:zoom="2.8284271"
     inkscape:cx="-87.082155"
     inkscape:cy="40.407321"
     inkscape:window-x="0"
     inkscape:window-y="24"
     inkscape:window-maximized="1"
     inkscape:current-layer="svg3043" />
  <path
     fill="#a4c639"
     d="m21.481,0.65239,4.062,7.0627c-7.394,3.6269-12.406,10.728-12.406,18.875h23.656,23.656c0-8.1468-5.012-15.248-12.406-18.875l4.063-7.0626s0.19231-0.37509-0.17225-0.58569c-0.365-0.21059-0.61,0.14869-0.61,0.14869l-4.125,7.1248c-3.141-1.3979-6.6721-2.1875-10.406-2.1875-3.7341,0-7.2653,0.7896-10.406,2.1875l-4.125-7.1248s-0.23006-0.35939-0.59737-0.14971c-0.368,0.20967-0.184,0.58671-0.184,0.58671zm4.062,13.68c1.2395,0,2.25,1.0105,2.25,2.25-0.00001,1.2395-1.0105,2.2188-2.25,2.2188s-2.25-0.97928-2.25-2.2188,1.0105-2.25,2.25-2.25zm22.5,0c1.2395,0,2.25,1.0105,2.25,2.25-0.00001,1.2395-1.0105,2.2188-2.25,2.2188s-2.25-0.97928-2.25-2.2188,1.0105-2.25,2.25-2.25z"
     id="path3045"
     style="fill:#ff96ec;fill-opacity:1" />
  <path
     d="m12.947,29.344,0,35.893c0,1.7807,2.1523,4.1116,3.933,4.1116h5.6295v12.237c0,3.1162,2.2691,5.625,5.0938,5.625,2.8246,0,5.0938-2.5088,5.0938-5.625v-12.237h8.1875v12.237c0,3.1162,2.2691,5.625,5.0938,5.625,2.8246,0,5.125-2.5088,5.125-5.625v-12.237h5.5982c1.7807,0,3.933-2.3309,3.933-4.1116v-35.893h-47.688z"
     id="path3047"
     style="fill:#ffcc00"
     fill="#a4c639" />
  <rect
     rx="5.625"
     ry="5.625"
     height="32.545"
     width="10.197"
     y="28.593"
     x="0"
     fill="#a4c639"
     id="rect3049"
     style="fill:#ffcc00" />
  <rect
     rx="5.625"
     ry="5.625"
     height="32.545"
     width="10.197"
     y="28.593"
     x="63.39"
     fill="#a4c639"
     id="rect3051"
     style="fill:#ffcc00" />
</svg>
